<?xml version="1.0" encoding="UTF-8" standalone="no"?>
<svg
   width="275"
   height="275"
   version="1.1"
   id="svg1"
   sodipodi:docname="untitled-bg.svg"
   inkscape:version="1.4.2 (ebf0e940, 2025-05-08)"
   inkscape:export-filename="untitled.png"
   inkscape:export-xdpi="41.890907"
   inkscape:export-ydpi="41.890907"
   xmlns:inkscape="http://www.inkscape.org/namespaces/inkscape"
   xmlns:sodipodi="http://sodipodi.sourceforge.net/DTD/sodipodi-0.dtd"
   xmlns="http://www.w3.org/2000/svg"
   xmlns:svg="http://www.w3.org/2000/svg">
  <defs
     id="defs1" />
  <sodipodi:namedview
     id="namedview1"
     pagecolor="#505050"
     bordercolor="#ffffff"
     borderopacity="1"
     inkscape:showpageshadow="0"
     inkscape:pageopacity="0"
     inkscape:pagecheckerboard="1"
     inkscape:deskcolor="#505050"
     inkscape:zoom="2.6132627"
     inkscape:cx="160.90996"
     inkscape:cy="141.2028"
     inkscape:window-width="1576"
     inkscape:window-height="1027"
     inkscape:window-x="1644"
     inkscape:window-y="25"
     inkscape:window-maximized="0"
     inkscape:current-layer="svg1"
     inkscape:clip-to-page="true" />
  <rect
     style="fill:#3f003f;fill-opacity:1;stroke-width:9.87629;stroke-dasharray:none"
     id="rect3"
     width="275.13498"
     height="274.75232"
     x="0"
     y="0"
     rx="9.8899584" />
  <g
     id="g3"
     transform="matrix(1.1957521,0,0,1.149551,-34.844184,-28.324617)">
    <path
       d="m 174.62524,28.196565 a 75.923913,76.4781 0 0 0 -70.82246,48.937955 53.067029,53.454378 0 0 0 -8.88768,-0.762774 51.811594,52.189779 0 0 0 0,104.379554 h 37.73279 l -16.66939,27.98175 a 7.9710145,8.0291968 0 0 0 6.83515,12.16424 h 25.77627 l -16.66939,27.98175 a 7.9731315,8.0313293 0 0 0 13.67029,8.27007 l 23.91305,-40.14598 a 7.9710145,8.0291968 0 0 0 -6.83515,-12.16424 h -25.77627 l 14.34783,-24.08759 h 23.38496 a 75.724638,76.27737 0 0 0 0,-152.554735 z m 0,136.496345 H 94.9151 a 35.869565,36.131386 0 0 1 0,-72.262768 37.97192,38.249086 0 0 1 4.76268,0.31113 q -0.55797,3.58303 -0.76721,7.25639 a 7.9841823,8.0424607 0 0 0 15.94203,0.923358 59.842391,60.279195 0 1 1 59.77264,63.77189 z"
       fill="#ffffff"
       id="svg_1"
       style="stroke-width:1.00001" />
    <g
       id="g2"
       style="fill:#f9f9f9;stroke-width:6.911;stroke-dasharray:none"
       transform="matrix(1.4838287,0,0,1.4110257,-52.956302,-36.197027)">
      <path
         sodipodi:type="star"
         style="fill:#f9f9f9;stroke-width:10.1826;stroke-dasharray:none"
         id="path1"
         inkscape:flatsided="true"
         sodipodi:sides="3"
         sodipodi:cx="140.61539"
         sodipodi:cy="63.384617"
         sodipodi:r1="18.28126"
         sodipodi:r2="9.7895002"
         sodipodi:arg1="0.50728939"
         sodipodi:arg2="1.554487"
         inkscape:rounded="0.16"
         inkscape:randomized="0"
         d="m 156.59439,72.265832 c -2.46124,4.42823 -29.05552,4.862005 -31.65986,0.516398 -2.60434,-4.345607 10.31714,-27.593818 15.38271,-27.676441 5.06558,-0.08262 18.73838,22.731812 16.27715,27.160043 z"
         inkscape:transform-center-x="0.017887203"
         inkscape:transform-center-y="-4.1030681"
         transform="matrix(0.54633223,0,0,0.84314774,77.604738,52.94795)" />
      <circle
         style="fill:#f9f9f9;stroke-width:6.911;stroke-dasharray:none"
         id="path2"
         cx="154.44232"
         cy="91.307693"
         r="9.2307692" />
    </g>
  </g>
</svg>
